<?xml version="1.0" encoding="UTF-8"?>
<svg id="Camada_2" xmlns="http://www.w3.org/2000/svg" viewBox="0 0 387.81 201.2">
  <defs>
    <style>
      .cls-1 {
        fill: #5e5e5e;
      }

      .cls-2 {
        letter-spacing: -.01em;
      }

      .cls-3 {
        fill: #cd988c;
      }

      .cls-4 {
        font-family: Rubik-Regular, Rubik;
        font-size: 37.61px;
      }

      .cls-4, .cls-5 {
        fill: #ff98ba;
      }

      .cls-6 {
        letter-spacing: -.01em;
      }

      .cls-7 {
        fill: #040404;
      }
    </style>
  </defs>
  <g id="Camada_1-2" data-name="Camada_1">
    <g>
      <path class="cls-5" d="M138.72,127.21c2.16,2.96,4.58,5.51,7.68,7.36,5.59,3.34,11.76,4.4,18.07,3.77,21.85-2.19,39.64-12.08,53.29-29.21,5.32-6.68,8.43-14.4,8.07-23.17-.2-4.77-1.49-9.11-5.25-12.43-1.94-1.72-3.98-2.21-6.39-1.23-1.79.72-3.58,1.49-5.54,1.68-4.12.39-7.14-3.36-5.87-7.31.37-1.17,1.26-1.86,2.28-2.38,1.75-.89,3.62-1.39,5.59-1.4,1.54,0,3.01-.24,4.36-1,6.73-3.79,12.8-8.37,17.4-14.68,1.53-2.1,2.77-4.37,3.22-6.98.78-4.6-1.59-7.34-6.24-7.18-3.44.12-6.47,1.51-9.4,3.17-6.59,3.74-11.71,9.1-16.37,14.94-8.38,10.52-15.46,21.91-22.22,33.49-5.05,8.65-9.95,17.38-14.95,26.06-1.35,2.34-2.05,2.58-4.63,2.05-5.26-1.07-6.25-2.38-5.49-7.64,1.23-8.51,3.84-16.68,6.38-24.85,3.05-9.82,6.48-19.52,10.17-29.12.19-.49.56-.94.34-1.6-6.21.22-12.34-.39-18.36-2.07-8.68-2.42-16.42-6.74-23.68-11.92-7.41-5.29-14.63-10.85-22.01-16.16-5.92-4.26-12.18-7.93-19.16-10.24-10.26-3.39-20.2-2.2-29.91,2.09-3.94,1.74-7.81,3.63-11.71,5.45-.67.31-1.31.78-2.29.45,9.62-7.12,19.09-14.28,31.21-16.5,7.73-1.41,15.23-.32,22.64,1.96,10.68,3.3,20.41,8.61,29.94,14.31,9.2,5.5,18.05,11.57,27.51,16.62,8.63,4.6,17.76,7.46,27.65,7.39,3.15-.02,6.24-.47,9.06-2,2.66-1.45,4.39-3.62,4.82-6.68.17-1.19.2-2.48-1.08-3.13-1.17-.6-2.06.22-2.87.94-1.93,1.71-3.16,3.94-4.37,6.16-.41.75-.87,1.08-1.71,1.2-3.07.42-6.13.28-9.2.08-.68-.04-1.04-.16-.61-.93,2.6-4.73,5.24-9.43,9.69-12.76,2.26-1.69,4.78-2.8,7.65-2.5,5.77.59,9.12,6.26,7.32,12.32-1.21,4.08-3.97,6.95-7.4,9.28-2.88,1.95-6.03,3.35-9.34,4.34-1.02.31-1.58.77-1.98,1.8-3.83,9.88-6.93,20-9.81,30.31,1.06.03,1.21-.86,1.55-1.42,4.16-6.81,8.54-13.46,13.36-19.82,6.89-9.09,14.3-17.69,23.64-24.4,4.81-3.45,9.94-6.26,15.97-6.92,7.63-.84,13.37,4.1,13.7,11.8.29,6.9-2.48,12.67-6.67,17.91-3.41,4.26-7.67,7.53-12.44,10.33,1.45,1.58,2.96,3.02,4.23,4.64,6.08,7.76,7.54,16.63,5.95,26.13-2.21,13.21-9.03,23.87-18.72,32.77-11.66,10.7-25.29,17.64-40.96,20.32-6.55,1.12-13.1,1.16-19.54-.75-9.78-2.91-15.53-10.01-16.39-20.16-.07-.85-.12-1.71-.18-2.56Z"/>
      <path class="cls-5" d="M316.1,90.58c-5.01,2.6-9.35,6.13-13.56,9.83-5.13,4.51-9.67,9.52-12.96,15.57-1.14,2.09-1.95,4.31-2.64,6.59-.7,2.31-2.64,2.79-4.45,1.08-1.95-1.84-2.82-4.28-3.47-6.82-.16-.62-.26-1.26-.46-2.23-1.16,1.22-2.15,2.31-3.2,3.35-2.36,2.37-4.79,4.65-7.63,6.46-3.62,2.3-5.78,1.82-8.03-1.82-1.33-2.14-1.92-4.52-2.15-7.01-.62-.06-.7.47-.94.77-2.89,3.49-5.84,6.92-9.43,9.73-1.28,1-2.65,1.82-4.13,2.5-1.51.69-2.68.36-3.75-.82-2.64-2.9-3.52-6.35-3.18-10.17.47-5.36,2.07-10.45,3.95-15.45,5.92-15.73,13.92-30.31,24.37-43.51,2.78-3.51,5.74-6.87,9.33-9.59,3.67-2.78,7.31-3,10.96-.74,2.23,1.38,2.28,2.31.24,3.92-5.64,4.44-10.13,9.96-14.41,15.65-9.61,12.75-17.65,26.4-23.56,41.25-1.27,3.2-2.4,6.47-2.64,9.95-.05.67-.25,1.5.44,1.95.77.5,1.46-.09,2.07-.48,3.57-2.34,6.16-5.68,8.9-8.86,1.88-2.19,3.2-4.6,4.18-7.35,2.76-7.77,6.92-14.81,12-21.3,2-2.55,4.25-2.98,7.08-1.37.9.51,1.65,1.21,2.31,2,1.19,1.4,1.28,2.38.17,3.92-2.2,3.06-4.69,5.9-6.76,9.06-3.56,5.44-6.55,11.14-7.85,17.58-.23,1.13-.7,2.57.48,3.27,1.05.62,2.13-.36,3.05-.96,3.74-2.45,6.91-5.6,9.5-9.15,1.71-2.33,2.5-5.34,3.96-7.92,3.77-6.68,8.12-12.96,13.23-18.69,1.76-1.98,2.31-2.01,4.4-.34.46.37.91.76,1.32,1.19,3.31,3.49,3.4,5.03.4,8.74-2.94,3.62-5.89,7.24-8.42,11.25,1.04.26,1.4-.56,1.9-1.03,6.64-6.25,13.46-12.27,21.04-17.37,1.79-1.2,3.64-2.3,5.63-3.15,1.53-.65,2.83-.42,3.95.8.58.64,1.18,1.26,1.67,1.96,2.41,3.42,2.5,5.04.15,8.51-2.99,4.41-6.17,8.69-9.18,13.09-2.1,3.07-4.04,6.24-4.87,9.95-.22.99-.67,2.21.19,2.91.91.75,2.06.1,3.03-.34,3.84-1.75,6.84-4.63,9.98-7.35,1.83-1.58,3.05-3.47,4.04-5.69,6.02-13.4,14.51-25.16,24.33-35.99,5.04-5.56,10.44-10.71,16.96-14.59,5.92-3.53,10.38-.34,13.1,3.69,1.06,1.57.78,2.15-.97,2.93-4.79,2.14-8.8,5.4-12.63,8.89-12.52,11.39-23.14,24.34-31.67,38.97-.54.93-.97,1.92-1.44,2.88-.06.12-.04.28-.06.53.86-.04,1.06-.76,1.43-1.2,5.25-6.31,10.72-12.4,17.56-17.07,4-2.73,8.25-4.84,13.19-5.32,1.9-.18,3.49.19,4.92,1.47,1.44,1.28,2.95,2.47,4.19,4.2-3.72,1.04-7.23,2.17-10.66,3.58-3.64,1.49-7.16,3.23-10.64,5.07-.64.34-1.21.72-1.21,1.55-.07,6.77.3,13.48,3.41,19.7.21.43.49.84.79,1.22,1.97,2.53,3.64,2.86,6.4,1.22,2.98-1.77,5.63-3.98,8.2-6.28,3.25-2.9,6.45-5.85,9.68-8.79,1.1,2.03.65,5-1.37,6.78-4.8,4.24-9.24,8.9-14.42,12.71-1.52,1.12-3.1,2.15-4.83,2.92-3.83,1.7-6.93,1.02-9.73-2.17-2.66-3.03-3.71-6.75-4.44-10.59-.68-3.56-.81-7.17-.81-10.79,0-.52.28-1.22-.23-1.5-.53-.3-.96.34-1.34.66-6.13,5.08-11.16,11.05-14.71,18.22-.87,1.75-1.66,1.9-2.85.28-2.69-3.66-3.65-7.85-3.49-12.37-.53-.16-.7.34-.98.58-3.26,2.9-6.54,5.79-10.32,8.01-1.12.66-2.26,1.24-3.5,1.63-2.88.92-4.43.43-6.03-2.16-3.15-5.07-3.3-10.46-1.45-16.01,1.78-5.35,4.85-9.94,8.35-14.28.44-.54.87-1.09,1.31-1.63.02-.14.1-.34.05-.39-.15-.13-.27-.01-.32.15ZM339.8,111.74c.15-.13.26-.21.35-.32.01-.01-.13-.21-.17-.2-.14.04-.26.13-.39.2.06.09.12.19.21.32Z"/>
      <path class="cls-1" d="M151.05,93.42c-4.3-2.7-9.06-3.24-13.99-2.94-5.18.31-10.26,1.32-15.33,2.33-15.48,3.1-30.59,1.95-45.18-4.13-14.45-6.02-25.7-15.57-32.11-30.2-.13-.3-.16-.78-.76-.77.99,4.47,2.42,8.76,4.4,12.87,2,4.15,4.71,7.82,7.52,11.45,1.89,2.45,1.07,4.3-1.98,4.77-2.86.44-5.57-.12-8.18-1.3-.33-.15-.61-.72-1.1-.28l.05-.02c.3.65.82,1.13,1.35,1.59,2.23,1.97,4.96,2.48,7.8,2.61,1.46.07,2.93.01,4.39.01-4.08,1.48-8.18,1.47-12.3.31-4.2-1.19-7.5-3.66-10.13-7.14.21,1.3.75,2.39,1.44,3.41,3.38,4.97,8.31,7.3,14.06,8.26,2.19.37,4.42.09,6.7.36-.17.18-.22.27-.3.31-.19.09-.4.17-.6.23-7.02,2.04-13.2.09-18.8-4.15-3.6-2.73-6.4-6.1-7.26-10.72-.56-3.02.86-5.81,3.51-7.15,2.86-1.45,5.71-1,7.91,1.25.27-.69-.15-1.12-.54-1.57-1.1-1.26-2.54-1.78-4.16-1.84-4.86-.17-8.78,3.61-9.14,8.78-.34,4.86,1.89,8.62,5.15,11.91,2.73,2.76,5.97,4.75,9.58,6.16.31.12.92.15.74.64-.19.51-.64.21-1.05.07-1.22-.41-2.49-.68-3.7-1.11-5.75-2.05-10.42-5.34-12.8-11.24-.59-1.46-.97-2.98-1.07-4.54-.09-1.47-.02-2.94-.02-4.41-1.68,5.89-1.1,11.41,2.85,16.27,3.9,4.8,9.2,7.09,15.14,8.19,2.12.39,4.27.4,6.4.71-5.42.91-10.73.55-15.86-1.41-5.01-1.91-9.04-4.97-11.19-10.08-.36-.14-.51.06-.59.37,1.71,7.79,6.84,12.05,14.36,13.76,4.69,1.06,9.41.97,14.14.33.43-.06.86-.17,1.28-.16.4,0,.86-.36,1.43.23-5.54,1.45-10.95,2.1-16.46,1.62-4.96-.43-9.68-1.57-13.39-5.24-.2-.2-.47-.23-.75,0,.74.92,1.41,1.9,2.23,2.75,3.15,3.27,7.19,4.65,11.54,5.21,8.84,1.13,17.24-.72,25.45-3.85.77-.29,1.49-.89,2.78-.49-11.42,6.41-23.21,8.46-35.8,5.57,2.59,1.81,6.77,3.02,10.83,3.28,9.11.58,17.71-1.25,25.84-5.27.02-.02.03-.03.06-.04.74-.36,1.37-.92,2.11-1.28.57-.27,1.1-.73,1.71-.91.73-.53,1.46-1.05,2.2-1.57,0,0,.02,0,.03,0,.02-.02.04-.03.07-.05.01-.01.03-.02.04-.03,0,0,0,0,0,0,.03-.02.05-.04.08-.06.05-.04.1-.08.14-.11.09-.08.18-.16.27-.24.04-.04.08-.05.13-.06,0,0,0,0,.01,0,.08-.05.25.06.47.11-.09.08-.16.15-.23.21-.01.03-.03.05-.04.07-.18.18-.39.34-.6.5-.05.04-.1.08-.15.12-.02.01-.04.03-.06.04-.53.8-1.29,1.32-2.08,1.81-.12.1-.22.25-.36.3-.34.13-.67.65-1.01.71-.01,0-.03.02-.04.03-.02.04-.05.08-.09.11-.1.06-.19.12-.28.19-.19.34-.78.5-1.09.73-1.66,1.2-3.46,2.18-5.33,3.02-7.86,3.55-15.99,5.42-24.65,3.98-.26.21-.07.42,0,.63,14.43,3.26,27.29-.05,38.76-9.22.06-.05.12-.11.19-.16,0,0,0,0,0,0,.02-.05.07-.07.11-.09.02-.07.08-.12.17-.14.1-.12.21-.23.32-.34.23-.21.47-.41.69-.62.05-.05.1-.1.14-.16,0,0,.01-.02.02-.03,0,0,.02-.02.02-.03.03-.03.06-.05.09-.06,0,0,0,0,0,0,0-.02.06-.06.09-.1.02.03.04.07.06.1.03.01.06.03.08.05.08.08.08.19.03.28-.03.12-.11.24-.19.35-.12.18-.27.34-.41.5,0,0,0,0,0,0-.12.14-.26.27-.39.4,0,0,.01,0,.02.02-7.09,8.02-15.99,12.49-26.39,14.32,7.29.43,14.08-1.18,20.47-4.6,4.81-2.58,8.83-6.12,12.52-10.08.15-.16.3-.32.44-.48.09-.16.13-.44.38-.26.24.16,0,.34-.08.5-.14.21-.27.41-.41.62-.29.57-.53,1.17-.87,1.71-4.01,6.25-9.57,10.71-16.16,13.96-1.99.98-4.07,1.76-6.46,2.77,3.86-.17,7.15-1.07,10.31-2.47,6.92-3.07,12.66-7.68,17.46-13.5.17-.2.32-.55.51-.75.19-.36.46-.67.74-.96,0,0,0,0,0,0,.07-.14.17-.23.36-.11.18.12.14.32,0,.48-.02.19-.1.38-.19.54,0,0-.01.02-.02.03,0,.06-.02.12-.04.18-.03.11-.08.21-.13.31-.01.02-.03.05-.04.07-.1.26-.34.53-.44.76-.78,1.72-1.78,3.31-2.86,4.86-3.69,5.27-8.27,9.62-13.63,13.21.15.14.23.22.31.29.24.19.37-.08.54-.14,4.58-1.47,8.55-3.98,12.19-7.08,4.4-3.76,7.66-8.41,10.43-13.43.06-.22.1-.61.34-.51.3.14.12.51.01.78-2.2,10.27-8.36,17.9-16.22,24.42,11.07-4.23,17.65-12.78,22.33-23.24-.19,4.97-1.98,9.39-4.29,13.63-2.32,4.27-5.37,7.98-9.04,11.21,2.04-.48,3.63-1.77,5.25-2.95,6.94-5.07,11.45-11.83,13.62-20.17-.06,7.97-2.4,15.26-6.28,22.11.56.25.89-.07,1.19-.37,6.22-6.18,8.3-14.27,10.28-22.42.84,7.2-.06,14.25-1.65,21.26,4.89-6.15,5.09-13.56,5.74-20.88,1.32,5.31,1.67,10.72,2.26,16.12,1.93-4.62,1.69-9.51,1.84-14.41.85,1.73,1.41,3.56,2.42,5.18,1.33,2.13,2.5,3.39,3.89,4-1.61-3.19-2.87-6.44-2.85-10.11,1.71,3.47,3.28,6.97,7.74,8.41-2.99-2.9-4.54-6.56-4.38-9.92,3.7,5.48,4.74,6.44,7.35,6.77-3.38-4.56-4.35-6.72-4.04-9.02,2.59,4.21,5.69,6.22,9,5.75-3.24-2.25-5.8-4.85-5.72-9.23,4.62,4.62,5.46,5.18,8.21,5.53.13-.79-.57-.95-.99-1.29-1.74-1.43-3.07-3.16-3.83-5.3-.11-.32-.61-.67-.17-.99.51-.36.74.22,1.01.51,1.51,1.67,3.38,2.67,5.92,3.31-1.65-2.02-3.05-3.73-3.76-5.85-1.05-3.14.29-5.58,3.49-6.44,1.91-.51,3.83-.4,5.77-.11.84.13,1.67.62,2.67.36-.38-.77-.98-1.04-1.51-1.37ZM53.25,105.24s-.04-.2,0-.24c.29-.26.56-.16.81.08-.26.14-.5.39-.82.16Z"/>
      <path class="cls-3" d="M197.24,155.97c-.03-2.3,1.14-3.8,2.84-4.99,4.79-3.37,10.04-5.84,15.47-7.95,13.02-5.07,26.59-7.96,40.37-9.93,13.57-1.94,27.22-2.81,40.93-2.52,14.37.3,28.61,1.63,42.49,5.64,7.44,2.15,14.58,5.01,20.63,10.02,4.06,3.36,7.35,7.31,8.1,12.79.4,2.93.17,5.82-1.25,8.49-.86,1.61-1.85,1.93-3.29,1.04-17.24-10.64-36.14-16.8-55.9-20.57-22.88-4.37-45.9-5.14-69.02-2.23-13.94,1.75-27.54,4.96-40.68,10-.19.07-.39.12-.69.22Z"/>
      <path class="cls-3" d="M46.07,51.49c1.58,2.02,3.06,3.95,4.59,5.85,5.18,6.46,11.68,11.24,19.08,14.81,8.73,4.21,17.99,6.38,27.66,6.97,6.73.41,13.43.13,20.14-.34,5.58-.39,11.2-.88,16.78-.43,3.2.26,6.48.4,9.6,1.6,5.12,1.97,8.38,5.64,10.48,10.55-.61.46-.93-.08-1.3-.29-5.25-3.05-10.9-3.92-16.91-3.51-6.74.45-13.27,2.09-19.91,3.09-8.64,1.3-17.24,1.18-25.81-.58-11.26-2.31-21.26-7.17-29.7-15.01-6.69-6.21-11.52-13.72-14.8-22.22-.03-.08.04-.2.1-.49Z"/>
      <path class="cls-5" d="M294.06,63.69c1.26-.03,2.15.35,2.88,1.03,1.48,1.39,2.46,3.1,3.08,5.03.3.95.05,1.6-.98,1.8-5.66,1.12-10.45,3.86-14.56,7.84-.65.63-1.31.68-2.03.21-1.21-.78-2.3-1.68-2.21-3.3.03-.57.2-1.19.48-1.69,2.7-5,6.52-8.77,12.01-10.63.5-.17,1.05-.23,1.34-.3Z"/>
      <path class="cls-3" d="M59.36,40.84c.9,3.32,2.86,5.28,6.22,6.05-3.17,1.02-5.27,2.88-6.21,6.18-.64-3.47-3.08-5.01-6.12-6.11,3.11-.98,5.41-2.62,6.11-6.12Z"/>
      <path class="cls-3" d="M39.8,41.68c-.95-3.14-3.01-4.82-5.86-5.59.07-.77.64-.83,1.04-.96,2.3-.72,3.67-2.29,4.35-4.54.08-.25.07-.56.4-.63.25-.05.41.11.45.34.55,3.08,2.75,4.51,5.65,5.5-3.11.87-5.13,2.71-6.03,5.87Z"/>
      <path class="cls-3" d="M31.43,55.95c-.56-3.17-2.52-4.65-5.14-5.68,2.89-.65,4.4-2.52,5.11-5.08.63.18.61.66.7.95.61,2.04,1.99,3.21,4,3.72.26.07.54.14.61.45.05.25-.14.38-.35.46-1.09.43-2.34.66-3.03,1.71-.64.96-1.12,2.03-1.9,3.47Z"/>
      <path class="cls-3" d="M20.53,43.04c-1.74.58-2.87,1.63-3.57,3.16-.25.55-.61.42-.77-.03-.57-1.72-2.04-2.36-3.98-3.11,2.26-.74,3.82-1.83,4.36-4.12.49,2.26,2.05,3.27,3.96,4.1Z"/>
      <path class="cls-3" d="M13.76,16.93c.89,1.71,2.07,2.82,3.88,3.52-1.97.62-3.06,1.99-3.84,4.09-.65-2.25-1.9-3.43-4.09-3.95,1.76-1.07,3.6-1.57,4.05-3.67Z"/>
      <path class="cls-3" d="M26.03,32.28c-1.89.44-2.62,1.75-3.35,3.53-.58-1.88-1.55-2.99-3.64-3.45,1.79-.92,3.16-1.66,3.59-3.45.78,1.54,1.75,2.72,3.39,3.37Z"/>
      <path class="cls-3" d="M55.42,37.56c-.64-1.9-1.77-2.76-3.31-3.47,1.42-.89,2.83-1.56,3.31-3.41.8,1.39,1.4,2.57,2.84,2.98.69.19.4.66-.11.83-1.3.46-2.06,1.44-2.73,3.07Z"/>
      <path class="cls-3" d="M6.63,28.92c-1.63.71-2.76,1.47-3.28,3.3-.57-1.79-1.64-2.65-3.35-3.17,1.56-.74,2.87-1.36,3.3-3.01.62,1.43,1.54,2.39,3.33,2.88Z"/>
      <path class="cls-3" d="M31.24,28.29c-.59-1.39-1.54-2.25-3.13-2.73,1.44-.77,2.66-1.29,2.96-2.93,1.1.88,1.55,2.15,2.79,2.56.42.14.22.58-.13.7-1.14.39-1.71,1.37-2.49,2.4Z"/>
      <path class="cls-3" d="M12.28,35.66c-.91-.92-2.06-1.56-2.17-2.35-.09-.66,1.57-.94,1.84-2.23.81.9,1.4,1.73,2.45,2.13-.68.89-1.86,1.15-2.11,2.44Z"/>
      <path class="cls-3" d="M37.34,64.27c-.55-1.24-1.4-1.84-2.29-2.5.86-.73,1.99-1.03,2.15-2.72.63,1.49,1.48,2.1,2.5,2.75-1.03.59-1.92,1.15-2.37,2.47Z"/>
      <path class="cls-3" d="M1.81,17.22c.34-.21.57-.28.67-.44,1.54-2.27,2.76-.75,4.01.33-.03.1-.04.24-.11.28-1.48.79-2.65.77-4.57-.18Z"/>
      <path class="cls-3" d="M19.84,14.24c1.2-.23,1.65-1.03,2.21-1.84.29.45.44.97.75,1.11,1.51.66,1.02,1,.03,1.85-.78.67-1,1.14-1.6-.02-.2-.38-.73-.59-1.39-1.1Z"/>
      <path class="cls-7" d="M44.39,85.21c-.03-.08-.05-.17-.08-.25.06.03.12.07.18.1-.05.06-.1.11-.15.17,0,0,.05-.02.05-.02Z"/>
      <text class="cls-4" transform="translate(95.13 190.97)"><tspan x="0" y="0">M</tspan><tspan class="cls-6" x="29.86" y="0">A</tspan><tspan x="54.57" y="0">QUI</tspan><tspan class="cls-2" x="116.66" y="0">A</tspan><tspan x="141.37" y="0">GEM</tspan></text>
    </g>
  </g>
</svg>